<svg width="24" height="24" viewBox="0 0 24 24" fill="none" xmlns="http://www.w3.org/2000/svg">
<path d="M4 7.556C4 4.628 4.628 4 7.556 4C10.484 4 11.111 4.628 11.111 7.556C11.111 10.484 10.484 11.111 7.556 11.111C4.628 11.111 4 10.484 4 7.556ZM4 16.444C4 13.516 4.628 12.889 7.556 12.889C10.484 12.889 11.111 13.516 11.111 16.444C11.111 19.372 10.484 20 7.556 20C4.628 20 4 19.372 4 16.444ZM16.444 4C13.516 4 12.889 4.628 12.889 7.556C12.889 10.484 13.516 11.111 16.444 11.111C19.372 11.111 20 10.484 20 7.556C20 4.628 19.372 4 16.444 4ZM12.889 16.444C12.889 13.516 13.516 12.889 16.444 12.889C19.372 12.889 20 13.516 20 16.444C20 19.372 19.372 20 16.444 20C13.516 20 12.889 19.372 12.889 16.444Z" fill="white"/>
</svg>
