<svg width="74" height="23" viewBox="0 0 74 23" fill="none" xmlns="http://www.w3.org/2000/svg">
<path d="M20 9.8H13.2V3H6.7C6.7 6.7 3.7 9.8 0 9.8V16.2H6.7V23H13.2C13.2 19.3 16.3 16.2 20 16.2V9.8Z" fill="#67EA46"/>
<path d="M27.62 18V16.344L34.604 9.828L34.856 10.746H27.62V8.442H37.556V10.17L30.824 16.488L30.518 15.696H37.718V18H27.62ZM47.5699 18.18C46.3339 18.18 45.2359 17.97 44.2759 17.55C43.3279 17.118 42.5839 16.53 42.0439 15.786C41.5159 15.03 41.2519 14.172 41.2519 13.212C41.2519 12.24 41.5159 11.382 42.0439 10.638C42.5839 9.894 43.3279 9.312 44.2759 8.892C45.2359 8.46 46.3339 8.244 47.5699 8.244C48.8059 8.244 49.8919 8.46 50.8279 8.892C51.7759 9.312 52.5139 9.894 53.0419 10.638C53.5819 11.382 53.8519 12.24 53.8519 13.212C53.8519 14.172 53.5819 15.03 53.0419 15.786C52.5139 16.53 51.7759 17.118 50.8279 17.55C49.8919 17.97 48.8059 18.18 47.5699 18.18ZM47.5699 15.696C48.1939 15.696 48.7579 15.594 49.2619 15.39C49.7779 15.174 50.1859 14.88 50.4859 14.508C50.7979 14.136 50.9479 13.704 50.9359 13.212C50.9479 12.72 50.7979 12.288 50.4859 11.916C50.1859 11.532 49.7779 11.238 49.2619 11.034C48.7579 10.818 48.1939 10.71 47.5699 10.71C46.9339 10.71 46.3579 10.818 45.8419 11.034C45.3259 11.238 44.9179 11.526 44.6179 11.898C44.3179 12.27 44.1679 12.708 44.1679 13.212C44.1679 13.704 44.3179 14.136 44.6179 14.508C44.9179 14.88 45.3259 15.174 45.8419 15.39C46.3579 15.594 46.9339 15.696 47.5699 15.696ZM59.1057 18V8.442H61.8417L61.9317 10.962L61.1577 11.142C61.3377 10.65 61.6317 10.188 62.0397 9.756C62.4597 9.312 62.9697 8.952 63.5697 8.676C64.1817 8.388 64.8597 8.244 65.6037 8.244C66.5277 8.244 67.3017 8.424 67.9257 8.784C68.5617 9.132 69.0417 9.612 69.3657 10.224C69.6897 10.836 69.8517 11.532 69.8517 12.312V18H66.9537V12.888C66.9537 12.444 66.8517 12.054 66.6477 11.718C66.4557 11.382 66.1797 11.124 65.8197 10.944C65.4717 10.764 65.0697 10.68 64.6137 10.692C64.2057 10.692 63.8397 10.764 63.5157 10.908C63.1917 11.04 62.9157 11.22 62.6877 11.448C62.4597 11.676 62.2857 11.922 62.1657 12.186C62.0457 12.45 61.9857 12.708 61.9857 12.96V18H60.5637C60.1077 18 59.7597 18 59.5197 18C59.2797 18 59.1417 18 59.1057 18Z" fill="#67EA46"/>
</svg>
